# xmcd
#
# Track frame offsets: 
#        150
#        16393
#        32215
#        48259
#        66042
#        80039
#        93739
#        108131
#        123000
#        140194
#
# Disc length: 2067 seconds
#
# Revision: 0
# Processed by: cddbd v1.5.2PL0 Copyright (c) Steve Scherf et al.
# Submitted via: ExactAudioCopy v0.99pb5
#
DISCID=8408110a
DTITLE=Dallas Smith - Jumped Right In
DYEAR=2012
DGENRE=Country
TTITLE0=If It Gets You Where You Wanna Go
TTITLE1=Somebody Somewhere
TTITLE2=What Kinda Love
TTITLE3=Jumped Right In
TTITLE4=Nothing But Summer
TTITLE5=Shotgun
TTITLE6=Stone Cold Killers
TTITLE7=And Then Some
TTITLE8=Never Saw Goodbye
TTITLE9=The Song That's In My Head
EXTD=
EXTT0=
EXTT1=
EXTT2=
EXTT3=
EXTT4=
EXTT5=
EXTT6=
EXTT7=
EXTT8=
EXTT9=
PLAYORDER=
